<?xml version="1.0" encoding="utf-8"?>
<!-- Generator: Adobe Illustrator 25.0.1, SVG Export Plug-In . SVG Version: 6.00 Build 0)  -->
<svg version="1.1" id="Vrstva_1" xmlns="http://www.w3.org/2000/svg" xmlns:xlink="http://www.w3.org/1999/xlink" x="0px" y="0px"
	 viewBox="0 0 99.9 36.6" style="enable-background:new 0 0 99.9 36.6;" xml:space="preserve">
<style type="text/css">
	.st0{enable-background:new    ;}
	.st1{fill:#FFFFFF;}
	.st2{fill:none;}
</style>
<g id="For_newbies" transform="translate(0 0.174)">
	<g class="st0">
		<path class="st1" d="M27.8,11.8c0.2-0.3,0.5-0.5,0.8-0.6c0.3-0.1,0.6-0.2,0.9-0.2c0.3,0,0.6,0.1,0.8,0.3c0.2,0.2,0.4,0.5,0.4,0.9
			c0.1,0.6,0,1.2-0.2,2s-0.6,1.5-1,2.3c-0.5,0.7-1,1.4-1.7,1.9c-0.7,0.6-1.4,0.9-2.2,1c-0.2,0.1-0.4,0.2-0.4,0.4
			c-0.1,0.2-0.1,0.4,0,0.5c0.1,0.3,0.3,0.5,0.5,0.8c0.2,0.2,0.4,0.4,0.7,0.6s0.5,0.2,0.8,0.3c0.3,0,0.6,0,0.9-0.1
			c0.3-0.1,0.5-0.3,0.7-0.4c0.2-0.2,0.4-0.4,0.5-0.6s0.3-0.4,0.5-0.7c0.1-0.2,0.3-0.5,0.5-0.7c0.1-0.1,0.2-0.1,0.3-0.1
			c0.1,0,0.2,0,0.3,0.1c0.1,0.1,0.1,0.1,0.2,0.2c0,0.1,0,0.2-0.1,0.3c-0.4,0.5-0.7,1-1,1.5c-0.3,0.5-0.8,0.8-1.4,1.2
			c-0.7,0.3-1.3,0.4-2,0.2c-0.2-0.1-0.4-0.1-0.5-0.1c-0.1,0-0.1,0.2-0.1,0.5c0,0.7,0,1.3-0.1,2c-0.1,0.7-0.3,1.3-0.7,1.9
			c-0.2,0.4-0.5,0.7-0.8,0.9c-0.3,0.2-0.6,0.3-0.9,0.3c-0.3,0-0.6-0.1-0.8-0.3c-0.2-0.2-0.4-0.4-0.5-0.7c-0.1-0.3-0.2-0.6-0.2-0.9
			c0-0.3,0-0.6,0.1-0.9c0.2-0.7,0.5-1.7,0.9-2.8c0.4-1.1,0.8-2.3,1.3-3.6c0.3-0.7,0.6-1.5,0.9-2.2c0.3-0.7,0.6-1.4,0.9-2.1
			c0.3-0.7,0.6-1.3,0.9-1.8C27.2,12.6,27.5,12.1,27.8,11.8z M23.1,25.6c-0.2,0.5-0.2,0.9-0.1,1.2c0.1,0.3,0.2,0.5,0.4,0.5
			c0.2,0,0.4,0,0.6-0.2c0.2-0.2,0.4-0.5,0.5-0.9c0.2-0.5,0.3-1.1,0.3-1.6c0-0.6,0-1.1-0.1-1.7c-0.1-0.5-0.2-0.7-0.3-0.6
			c-0.1,0-0.3,0.2-0.4,0.6c-0.2,0.5-0.3,0.9-0.5,1.4C23.4,24.6,23.3,25.1,23.1,25.6z M28.6,12.7c-0.2,0.2-0.4,0.5-0.6,0.8
			c-0.2,0.3-0.4,0.7-0.6,1.1c-0.2,0.4-0.4,0.8-0.6,1.2c-0.2,0.4-0.3,0.9-0.5,1.3c0,0.1-0.1,0.2-0.2,0.4c-0.1,0.2-0.1,0.3-0.1,0.4
			c0,0.1,0.1,0.2,0.2,0.2c0.1,0,0.3-0.1,0.7-0.3c0.4-0.3,0.8-0.7,1.2-1.1c0.4-0.5,0.7-0.9,0.9-1.4c0.3-0.5,0.5-1,0.6-1.4
			c0.1-0.5,0.2-0.8,0.1-1.2c0-0.2-0.1-0.4-0.2-0.5c-0.1-0.1-0.2-0.1-0.3-0.1c-0.1,0-0.2,0.1-0.4,0.2C28.8,12.5,28.7,12.6,28.6,12.7z
			"/>
		<path class="st1" d="M31.7,24.3c-0.7-0.1-1.1-0.4-1.4-0.9c-0.3-0.5-0.4-1.1-0.4-1.7c0-0.7,0.1-1.4,0.4-2.1c0.3-0.7,0.6-1.4,1-2
			c0.4-0.6,0.9-1,1.5-1.4s1.1-0.4,1.7-0.3c0.5,0.1,0.9,0.3,1.2,0.7c0.3,0.4,0.4,0.8,0.5,1.3c0.1,0.5,0,1-0.1,1.6
			c-0.1,0.6-0.3,1.2-0.6,1.7c-0.1,0.2-0.1,0.4-0.1,0.6s0.1,0.3,0.3,0.3c0.3,0,0.5,0,0.8-0.1c0.3-0.1,0.6-0.3,0.8-0.6
			c0.2-0.3,0.4-0.6,0.6-0.8c0.1-0.1,0.1-0.1,0.2-0.2c0-0.1,0.1-0.2,0.2-0.2c0.1-0.1,0.1-0.1,0.2-0.1c0.1,0,0.2,0,0.3,0.1
			c0.1,0.1,0.1,0.1,0.2,0.2c0,0.1,0,0.2-0.1,0.3c-0.1,0.1-0.2,0.3-0.3,0.4c-0.3,0.4-0.5,0.8-0.8,1.1c-0.3,0.3-0.6,0.6-1.1,0.7
			c-0.6,0.2-1.1,0.3-1.6,0.1c-0.2-0.1-0.4,0-0.5,0c-0.1,0.1-0.3,0.2-0.5,0.3c-0.4,0.4-0.8,0.7-1.2,0.8
			C32.6,24.3,32.2,24.4,31.7,24.3z M34.2,20.7c0.2,0,0.3,0,0.3,0c0-0.1,0.1-0.1,0.1-0.2c0.1-0.4,0.3-0.8,0.3-1.2
			c0.1-0.4,0.1-0.8,0.1-1.1c0-0.3-0.1-0.6-0.2-0.8c-0.1-0.2-0.3-0.4-0.5-0.4c-0.4-0.1-0.8,0-1.1,0.2c-0.4,0.3-0.7,0.6-1,1.1
			c-0.3,0.4-0.6,0.9-0.8,1.5c-0.2,0.6-0.3,1.1-0.4,1.6c-0.1,0.5,0,0.9,0.1,1.3c0.1,0.3,0.4,0.5,0.8,0.6c0.3,0,0.5,0,0.8-0.2
			s0.5-0.3,0.7-0.6c0.1-0.1,0.1-0.2,0.1-0.3c0-0.1,0-0.2-0.1-0.2c-0.1-0.2-0.2-0.4-0.1-0.6c0-0.1,0.1-0.3,0.2-0.4
			c0.1-0.1,0.2-0.2,0.3-0.2C33.9,20.7,34.1,20.7,34.2,20.7z"/>
		<path class="st1" d="M40,15.6c0.2-0.2,0.5-0.2,0.7-0.1c0.3,0.1,0.4,0.3,0.4,0.5c0,0.1,0,0.3-0.1,0.5c-0.1,0.2-0.1,0.4-0.2,0.5
			c0,0.1,0,0.1-0.1,0.2c0,0.1,0.1,0.2,0.2,0.3c0.2,0.1,0.5,0.2,0.8,0.4c0.3,0.2,0.6,0.4,0.7,0.5c0.2,0.2,0.3,0.3,0.4,0.5
			c0.1,0.2,0.1,0.3,0.1,0.5c0,0.2-0.1,0.4-0.2,0.6c-0.1,0.2-0.2,0.5-0.4,0.8c-0.1,0.3-0.3,0.5-0.4,0.8c-0.2,0.3-0.3,0.5-0.4,0.8
			c-0.1,0.2-0.2,0.5-0.3,0.7c-0.1,0.2-0.2,0.4-0.2,0.6c0,0.3,0.1,0.4,0.3,0.5c0.2,0.1,0.5,0,0.8-0.3c0.3-0.3,0.6-0.6,1-1
			c0.3-0.4,0.6-0.8,0.9-1.1c0.3-0.4,0.5-0.6,0.6-0.8c0.1-0.1,0.1-0.2,0.2-0.3c0.1-0.1,0.1-0.1,0.2-0.1c0.1,0,0.2,0,0.3,0.1
			c0.1,0.1,0.2,0.1,0.2,0.2c0,0.1,0,0.2-0.1,0.3c0,0-0.1,0.1-0.1,0.1c-0.2,0.3-0.5,0.7-0.8,1.2c-0.3,0.5-0.7,0.9-1.1,1.3
			c-0.4,0.4-0.8,0.8-1.3,1c-0.4,0.3-0.9,0.3-1.3,0.2c-0.3-0.1-0.6-0.3-0.8-0.5c-0.2-0.2-0.3-0.5-0.3-0.8c0-0.2,0.1-0.5,0.2-0.8
			c0.1-0.3,0.2-0.6,0.4-0.9c0.1-0.3,0.3-0.6,0.5-0.9c0.2-0.3,0.3-0.6,0.4-0.8c0.1-0.1,0.1-0.2,0.2-0.3c0-0.1,0.1-0.2,0.1-0.3
			c0-0.1,0-0.2,0-0.3c0-0.1-0.1-0.2-0.3-0.3c-0.1-0.1-0.2-0.2-0.3-0.2c-0.1-0.1-0.2-0.1-0.4-0.2c-0.1,0-0.2,0-0.3,0
			c-0.1,0-0.3,0.1-0.3,0.3c-0.4,0.8-0.9,1.7-1.5,2.4c-0.1,0.1-0.2,0.1-0.3,0.2c-0.1,0-0.2,0-0.3-0.1c-0.1-0.1-0.1-0.1-0.2-0.3
			c0-0.1,0-0.2,0.1-0.4c0.2-0.3,0.5-0.7,0.7-1.1c0.3-0.4,0.5-0.9,0.7-1.3c0.1-0.2,0.1-0.3,0.1-0.3c0,0,0-0.1-0.1-0.2
			c-0.1-0.2-0.1-0.4-0.1-0.6c0-0.2,0.1-0.4,0.1-0.6c0.1-0.2,0.2-0.4,0.3-0.6C39.7,15.8,39.8,15.7,40,15.6z"/>
		<path class="st1" d="M50.4,17.9c0.1-0.2,0.2-0.3,0.3-0.3c0.1-0.1,0.2-0.1,0.4-0.1c0.1,0,0.2,0.1,0.3,0.1c0.1,0.1,0.2,0.2,0.2,0.3
			c0,0,0.1,0.1,0.1,0.1c0.1,0.1,0.2,0.1,0.3,0c0.6-0.3,1.2-0.5,1.8-0.4c0.2,0,0.4,0.1,0.6,0.2s0.4,0.2,0.5,0.4
			c0.1,0.2,0.2,0.4,0.3,0.7c0,0.3,0,0.6-0.1,1c-0.1,0.4-0.3,0.7-0.4,1c-0.1,0.3-0.3,0.6-0.4,1c-0.1,0.3-0.3,0.7-0.4,1
			c-0.1,0.4-0.3,0.7-0.4,1.1c-0.1,0.4-0.1,0.7,0,0.8c0.1,0.1,0.3,0.2,0.6,0.1c0.3-0.1,0.5-0.3,0.9-0.6c0.3-0.3,0.6-0.7,0.9-1.1
			c0.3-0.3,0.5-0.6,0.7-1c0.2-0.3,0.4-0.5,0.5-0.7c0.1-0.1,0.1-0.1,0.2-0.1c0.1,0,0.2,0,0.3,0.1c0.1,0.1,0.1,0.1,0.2,0.2
			s0,0.2-0.1,0.3c-0.2,0.3-0.4,0.6-0.7,1c-0.2,0.4-0.5,0.7-0.8,1.1c-0.3,0.4-0.7,0.7-1,1.1c-0.3,0.3-0.7,0.5-1.1,0.7
			c-0.3,0.1-0.5,0.1-0.8,0.1c-0.2,0-0.5-0.1-0.6-0.3c-0.2-0.2-0.3-0.4-0.4-0.6s-0.1-0.6,0-1c0.1-0.4,0.2-0.8,0.4-1.2
			c0.1-0.4,0.3-0.7,0.4-1c0.1-0.3,0.3-0.7,0.4-1s0.3-0.7,0.4-1c0.1-0.2,0.1-0.4,0-0.6c-0.1-0.1-0.2-0.2-0.4-0.3
			c-0.4-0.1-0.8,0-1.1,0.2c-0.4,0.2-0.7,0.5-1,0.9c-0.3,0.4-0.6,0.8-0.8,1.2c-0.2,0.4-0.4,0.8-0.5,1.1l-1.1,2.9
			c-0.1,0.2-0.2,0.3-0.3,0.4c-0.1,0.1-0.3,0.1-0.4,0c-0.1,0-0.3-0.1-0.4-0.2c-0.1-0.1-0.1-0.3-0.1-0.4L50.4,17.9z"/>
		<path class="st1" d="M56.6,25.4c-0.2-0.5-0.3-1-0.2-1.7c0.1-0.7,0.2-1.3,0.5-2c0.2-0.4,0.4-0.9,0.7-1.3c0.3-0.4,0.6-0.8,0.9-1.1
			c0.3-0.3,0.7-0.5,1.1-0.7c0.4-0.2,0.8-0.2,1.2-0.2c0.7,0,1.2,0.3,1.4,0.8c0.3,0.5,0.3,1,0,1.6c-0.2,0.4-0.4,0.8-0.7,1.1
			c-0.3,0.3-0.6,0.6-1,0.8c-0.4,0.2-0.8,0.4-1.2,0.5c-0.4,0.1-0.9,0.2-1.3,0.2c-0.1,0-0.2,0.1-0.4,0.2c-0.2,0.1-0.2,0.2-0.3,0.4
			c0,0.2,0,0.3,0,0.5c0,0.1,0.1,0.3,0.1,0.4c0.1,0.3,0.3,0.5,0.5,0.7c0.2,0.1,0.5,0.2,0.8,0.2c0.4,0,0.9-0.1,1.3-0.3
			s0.8-0.5,1.2-0.8c0.4-0.3,0.7-0.7,1-1.1c0.3-0.4,0.6-0.7,0.8-1c0.1-0.1,0.2-0.1,0.3-0.1c0.1,0,0.2,0,0.3,0.1
			c0.1,0.1,0.1,0.1,0.2,0.2c0,0.1,0,0.2-0.1,0.3c-0.3,0.4-0.6,0.8-0.9,1.2s-0.7,0.8-1.1,1.2c-0.4,0.4-0.9,0.7-1.3,0.9
			c-0.5,0.2-1,0.4-1.5,0.4c-0.5,0-0.9-0.1-1.3-0.3C57.2,26.1,56.8,25.8,56.6,25.4z M58.2,21.6c-0.1,0.2-0.1,0.4-0.1,0.5
			c0,0.2,0.2,0.2,0.5,0.2c0.6-0.1,1.2-0.3,1.7-0.5c0.5-0.3,0.9-0.7,1.2-1.3c0.1-0.3,0.1-0.5,0.1-0.8s-0.3-0.4-0.6-0.4
			c-0.5,0-1,0.2-1.5,0.7C58.9,20.5,58.5,21,58.2,21.6z"/>
		<path class="st1" d="M71,25.4c-0.3-0.1-0.4,0-0.5,0c-0.1,0.1-0.2,0.2-0.3,0.3c-0.2,0.2-0.4,0.4-0.7,0.7c-0.2,0.2-0.5,0.4-0.7,0.6
			c-0.2,0.2-0.5,0.3-0.8,0.4c-0.3,0.1-0.6,0.1-0.9,0c-0.2,0-0.3-0.1-0.4-0.1c-0.1,0-0.2-0.1-0.3-0.2c-0.2-0.2-0.4-0.4-0.6-0.4
			c-0.1,0-0.3,0-0.4,0c-0.2,0.1-0.3,0.2-0.5,0.3C64.6,27,64.4,27,64,27c-0.4,0-0.7,0-1-0.2c-0.3-0.2-0.4-0.5-0.5-0.8
			c-0.1-0.4-0.1-1,0-1.6c0.1-0.6,0.3-1.3,0.6-1.9c0.2-0.6,0.5-1.3,0.8-1.9s0.5-1.1,0.6-1.5c0.1-0.2,0.2-0.3,0.3-0.4
			c0.2,0,0.3,0,0.5,0c0.1,0.1,0.2,0.2,0.3,0.3c0.1,0.2,0,0.4-0.1,0.6c-0.2,0.4-0.4,0.8-0.6,1.3c-0.2,0.4-0.4,0.9-0.6,1.4
			c-0.2,0.5-0.4,0.9-0.5,1.4s-0.2,0.9-0.3,1.3c-0.1,0.7,0,1,0.5,1c0.2,0,0.4-0.1,0.6-0.2c0.2-0.1,0.4-0.3,0.6-0.5s0.4-0.4,0.5-0.7
			c0.1-0.2,0.2-0.5,0.3-0.6c0.1-0.4,0.3-0.9,0.4-1.3c0.2-0.4,0.3-0.9,0.5-1.3c0.2-0.4,0.3-0.8,0.5-1.1c0.2-0.4,0.3-0.7,0.4-0.9
			c0.1-0.2,0.2-0.3,0.4-0.4c0.1,0,0.3,0,0.4,0c0.1,0.1,0.2,0.1,0.3,0.3c0.1,0.1,0.1,0.2,0,0.4c-0.1,0.2-0.2,0.4-0.4,0.8
			s-0.3,0.7-0.4,1.1c-0.2,0.4-0.3,0.8-0.5,1.3s-0.3,0.9-0.4,1.3c0,0.1-0.1,0.3-0.1,0.5C67,24.9,67,25.1,67,25.3c0,0.2,0,0.4,0.1,0.6
			c0.1,0.2,0.2,0.3,0.3,0.4c0.2,0.1,0.4,0,0.7-0.1c0.3-0.1,0.5-0.3,0.8-0.6s0.6-0.6,0.8-1s0.5-0.7,0.8-1.1c0.2-0.3,0.4-0.7,0.6-1
			c0.2-0.3,0.3-0.6,0.3-0.7c0-0.2,0.1-0.3,0.1-0.5c0-0.2,0.1-0.3,0.1-0.5c0-0.2,0-0.4-0.1-0.5c-0.1-0.1-0.2-0.2-0.3-0.2
			c-0.2-0.1-0.4,0-0.6,0.2c-0.2,0.2-0.3,0.4-0.4,0.8c-0.1,0.3-0.1,0.6-0.1,1c0,0.4,0,0.6,0.2,0.9c0.1,0.1,0.1,0.3,0,0.4
			c0,0.1-0.1,0.2-0.2,0.3c-0.1,0.1-0.2,0.1-0.3,0.1c-0.1,0-0.2-0.1-0.3-0.2c-0.2-0.4-0.3-0.8-0.3-1.4c0-0.5,0.1-1,0.2-1.5
			c0.2-0.5,0.4-0.8,0.7-1.1c0.3-0.3,0.8-0.4,1.3-0.3c0.3,0.1,0.5,0.2,0.7,0.4c0.2,0.2,0.3,0.5,0.4,0.9c0,0.4,0,0.9-0.2,1.4
			c-0.1,0.4-0.3,0.7-0.4,1.1c-0.2,0.3-0.3,0.6-0.5,0.9c0,0-0.1,0.1-0.1,0.2c0,0.1,0,0.2,0,0.2c0,0.1,0,0.1,0.1,0.2
			c0,0.1,0.1,0.1,0.3,0.1c0.3,0,0.5-0.1,0.8-0.2c0.2-0.2,0.5-0.4,0.7-0.6c0.2-0.2,0.4-0.5,0.5-0.7c0.1-0.1,0.1-0.1,0.2-0.1
			c0.1,0,0.2,0,0.3,0.1c0.1,0.1,0.2,0.1,0.2,0.2c0,0.1,0,0.2-0.1,0.3c-0.2,0.4-0.4,0.7-0.7,1c-0.3,0.3-0.6,0.5-0.9,0.7
			c-0.2,0.1-0.5,0.2-0.7,0.2C71.6,25.5,71.3,25.5,71,25.4z"/>
		<path class="st1" d="M76.9,27.9c-0.1-0.1-0.3-0.2-0.4-0.2c-0.2,0-0.3,0-0.5,0.1c-0.5,0.2-1,0.2-1.7,0.1c-0.3-0.1-0.5-0.2-0.8-0.3
			s-0.4-0.4-0.5-0.6c-0.1-0.3-0.2-0.7-0.2-1.1s0.1-0.8,0.1-1.2s0.2-0.8,0.4-1.3c0.1-0.4,0.3-0.9,0.5-1.3c0.2-0.4,0.3-0.8,0.5-1.2
			c0.2-0.4,0.3-0.7,0.4-1c0.4-1,0.8-2,1.2-2.9c0.4-0.9,0.7-1.7,1-2.4c0.1-0.2,0.2-0.4,0.4-0.4c0.2-0.1,0.3-0.1,0.5,0
			c0.1,0,0.2,0.1,0.3,0.3c0.1,0.1,0.1,0.3,0,0.4c-0.1,0.2-0.2,0.5-0.3,0.8c-0.1,0.3-0.3,0.6-0.4,1c-0.2,0.4-0.3,0.7-0.5,1.1
			c-0.2,0.4-0.3,0.7-0.4,1.1c-0.1,0.2-0.1,0.4-0.1,0.5c0,0.1,0,0.2,0.1,0.2c0.1,0,0.1,0,0.2,0c0.1,0,0.2,0,0.3-0.1
			c0.4-0.1,0.8,0,1.2,0.1c0.4,0.1,0.7,0.4,0.9,0.7c0.2,0.4,0.3,0.9,0.2,1.6c-0.1,0.7-0.3,1.4-0.5,2.1c-0.1,0.4-0.3,0.7-0.5,1.1
			c-0.2,0.3-0.4,0.7-0.6,1c0,0.1-0.1,0.2-0.2,0.3c-0.1,0.1-0.1,0.3,0,0.4c0.1,0.2,0.2,0.3,0.4,0.3c0.3,0,0.6-0.1,0.9-0.4
			c0.3-0.3,0.6-0.6,0.9-0.9c0.3-0.3,0.5-0.7,0.8-1.1c0.3-0.4,0.5-0.7,0.6-0.9c0.1-0.1,0.1-0.1,0.2-0.1s0.2,0,0.3,0.1
			c0.1,0.1,0.1,0.1,0.2,0.2c0,0.1,0,0.2-0.1,0.3c-0.2,0.3-0.4,0.7-0.7,1.1c-0.3,0.4-0.6,0.8-0.9,1.2c-0.3,0.4-0.7,0.7-1,1
			c-0.4,0.3-0.8,0.4-1.2,0.5C77.6,28.3,77.2,28.2,76.9,27.9z M77,24.9c0.1,0.1,0.2,0,0.3,0c0-0.1,0.1-0.2,0.1-0.2
			c0.1-0.1,0.1-0.2,0.1-0.3c0-0.1,0.1-0.2,0.1-0.3c0.3-0.6,0.5-1.2,0.6-1.7s0.1-0.9-0.1-1.2c-0.1-0.2-0.3-0.4-0.5-0.4
			s-0.5,0-0.7,0.1c-0.7,0.3-1.2,0.9-1.7,1.7c-0.2,0.3-0.4,0.7-0.5,1.1c-0.1,0.4-0.3,0.7-0.3,1.1c-0.1,0.3-0.1,0.7-0.1,1
			c0,0.3,0,0.5,0.1,0.7c0.1,0.2,0.2,0.3,0.3,0.4c0.1,0.1,0.2,0.1,0.4,0.1c0.1,0,0.3,0,0.4-0.1c0.1,0,0.3-0.1,0.4-0.2
			c0.2-0.1,0.2-0.2,0.3-0.3c0-0.1,0-0.2,0-0.3c-0.1-0.2-0.1-0.4,0-0.6s0.1-0.3,0.2-0.4c0.1-0.1,0.2-0.2,0.4-0.2
			C76.6,24.8,76.8,24.8,77,24.9z"/>
		<path class="st1" d="M81.1,28.3c-0.3-0.2-0.4-0.5-0.5-0.9c-0.1-0.4-0.1-0.8,0-1.4s0.3-1.1,0.5-1.7c0.3-0.7,0.5-1.4,0.8-2.1
			c0.3-0.7,0.5-1.2,0.7-1.6c0.1-0.2,0.2-0.3,0.3-0.4c0.2-0.1,0.3-0.1,0.5,0c0.1,0.1,0.3,0.2,0.3,0.3c0.1,0.2,0,0.4-0.1,0.6
			c-0.1,0.1-0.1,0.3-0.2,0.5c-0.1,0.2-0.2,0.5-0.4,0.8c-0.1,0.3-0.3,0.6-0.4,1c-0.2,0.4-0.3,0.7-0.4,1.1c-0.1,0.4-0.2,0.7-0.3,1
			c-0.1,0.3-0.2,0.6-0.2,0.9c-0.1,0.7,0.1,1.1,0.5,1.1c0.3,0,0.6-0.1,0.9-0.4c0.3-0.3,0.6-0.6,0.9-0.9c0.3-0.3,0.6-0.7,0.8-1.1
			c0.2-0.4,0.5-0.7,0.6-0.9c0.1-0.1,0.1-0.1,0.2-0.1c0.1,0,0.2,0,0.3,0.1c0.1,0.1,0.1,0.1,0.2,0.2c0,0.1,0,0.2-0.1,0.3
			c-0.2,0.3-0.4,0.7-0.7,1.1c-0.3,0.4-0.6,0.8-0.9,1.2c-0.3,0.4-0.7,0.7-1,1c-0.4,0.3-0.8,0.4-1.2,0.4
			C81.7,28.6,81.4,28.5,81.1,28.3z M83.6,17.7c-0.1,0.1-0.2,0.3-0.2,0.5c0,0.2,0,0.4,0.2,0.5c0.1,0.2,0.3,0.2,0.5,0.3
			c0.2,0,0.4,0,0.5-0.2c0.2-0.1,0.2-0.3,0.3-0.5c0-0.2,0-0.4-0.2-0.5c-0.1-0.2-0.3-0.2-0.5-0.3S83.8,17.6,83.6,17.7z"/>
		<path class="st1" d="M85,27.9c-0.2-0.5-0.3-1-0.2-1.7s0.2-1.3,0.5-2c0.2-0.4,0.4-0.9,0.7-1.3c0.3-0.4,0.6-0.8,0.9-1.1
			c0.3-0.3,0.7-0.5,1.1-0.7c0.4-0.2,0.8-0.2,1.2-0.2c0.7,0,1.2,0.3,1.4,0.8c0.3,0.5,0.3,1,0,1.6c-0.2,0.4-0.4,0.8-0.7,1.1
			c-0.3,0.3-0.6,0.6-1,0.8c-0.4,0.2-0.8,0.4-1.2,0.5c-0.4,0.1-0.9,0.2-1.3,0.2c-0.1,0-0.2,0.1-0.4,0.2c-0.2,0.1-0.2,0.2-0.3,0.4
			c0,0.2,0,0.3,0,0.5c0,0.1,0.1,0.3,0.1,0.4c0.1,0.3,0.3,0.5,0.5,0.7c0.2,0.1,0.5,0.2,0.8,0.2c0.4,0,0.9-0.1,1.3-0.3
			c0.4-0.2,0.8-0.5,1.2-0.8c0.4-0.3,0.7-0.7,1-1.1c0.3-0.4,0.6-0.7,0.8-1c0.1-0.1,0.2-0.1,0.3-0.1c0.1,0,0.2,0,0.3,0.1
			c0.1,0.1,0.1,0.1,0.2,0.2s0,0.2-0.1,0.3c-0.3,0.4-0.6,0.8-0.9,1.2s-0.7,0.8-1.1,1.2s-0.9,0.7-1.3,0.9s-1,0.4-1.5,0.4
			c-0.5,0-0.9-0.1-1.3-0.3C85.6,28.6,85.2,28.3,85,27.9z M86.6,24.1c-0.1,0.2-0.1,0.4-0.1,0.5c0,0.2,0.2,0.2,0.5,0.2
			c0.6-0.1,1.2-0.3,1.7-0.5c0.5-0.3,0.9-0.7,1.2-1.3c0.1-0.3,0.1-0.5,0.1-0.8c-0.1-0.2-0.3-0.4-0.6-0.4c-0.5,0-1,0.2-1.5,0.7
			C87.3,23,86.9,23.5,86.6,24.1z"/>
		<path class="st1" d="M91.2,25.5l3.2-4.9c0.1-0.1,0.2-0.2,0.3-0.2c0.1,0,0.3,0,0.4,0.1c0.1,0.1,0.2,0.2,0.3,0.3
			c0.1,0.1,0.1,0.3,0,0.5c-0.1,0.3-0.2,0.6-0.3,0.8s-0.1,0.5-0.2,0.8c-0.1,0.4-0.1,0.8,0,1.2c0,0.4,0.1,0.8,0.1,1.2
			c0.1,0.4,0.1,0.8,0.1,1.2c0,0.4-0.1,0.8-0.2,1.1c0,0.1,0,0.2,0,0.2c0,0.1,0.1,0.1,0.3,0c0.3-0.3,0.7-0.6,0.9-0.9
			c0.3-0.3,0.5-0.7,0.8-1c0.1-0.1,0.2-0.2,0.2-0.4s0.1-0.2,0.2-0.3c0.1-0.1,0.1-0.1,0.2-0.1c0.1,0,0.2,0,0.3,0.1
			c0.1,0.1,0.1,0.1,0.2,0.2c0,0.1,0,0.2-0.1,0.3l-0.3,0.5c-0.2,0.3-0.5,0.7-0.8,1s-0.6,0.6-0.9,0.9c-0.3,0.3-0.7,0.5-1,0.8
			c-0.4,0.2-0.7,0.4-1.1,0.5c-0.3,0.1-0.6,0.1-0.9,0.1s-0.7-0.1-1-0.1c-0.3-0.1-0.6-0.2-0.8-0.4c-0.2-0.2-0.4-0.4-0.5-0.7
			c-0.1-0.1-0.1-0.3,0-0.4c0-0.1,0.1-0.2,0.2-0.3c0.1,0,0.2-0.1,0.3,0c0.1,0,0.2,0.1,0.3,0.2c0.3,0.4,0.6,0.6,0.9,0.6
			c0.4,0,0.7-0.1,1-0.4c0.2-0.3,0.4-0.5,0.4-0.9c0.1-0.3,0.1-0.7,0.1-1s-0.1-0.7-0.1-1.1c-0.1-0.4-0.1-0.7-0.2-1.1
			c0-0.1-0.1-0.2-0.2-0.2c-0.1,0-0.2,0-0.3,0.1l-1.3,1.9c-0.1,0.1-0.2,0.2-0.3,0.2c-0.1,0-0.2,0-0.3-0.1c-0.1-0.1-0.1-0.1-0.2-0.2
			C91.1,25.7,91.1,25.6,91.2,25.5z"/>
	</g>
	<g id="Line">
		<path id="Line-2" class="st2" d="M21.8,15.3c0.2,0.2,0.2,0.5,0,0.7c-0.2,0.2-0.5,0.2-0.7,0c-6.5-5.9-12.2-6.8-17.4-3
			C0,15.8,0.1,19.8,4,25l0.2,0.3l4.1,4.4l-1.7-7.1c-0.1-0.2,0.1-0.5,0.3-0.6l0.1,0c0.2-0.1,0.5,0.1,0.6,0.3l0,0.1l2.2,8.9
			c0.1,0.3-0.1,0.5-0.4,0.6c-0.1,0-0.1,0-0.2,0l-0.1,0l-8.7-2.8c-0.3-0.1-0.4-0.4-0.3-0.6c0.1-0.2,0.3-0.4,0.5-0.3l0.1,0l6.9,2.2
			L3.5,26C-1,20.2-1.2,15.5,3.2,12.2C8.7,8.1,15,9.1,21.8,15.3z"/>
		<path id="Line-3" class="st1" d="M21.8,15.3c0.2,0.2,0.2,0.5,0,0.7c-0.2,0.2-0.5,0.2-0.7,0c-6.5-5.9-12.2-6.8-17.4-3
			C0,15.8,0.1,19.8,4,25l0.2,0.3l4.1,4.4l-1.7-7.1c-0.1-0.2,0.1-0.5,0.3-0.6l0.1,0c0.2-0.1,0.5,0.1,0.6,0.3l0,0.1l2.2,8.9
			c0.1,0.3-0.1,0.5-0.4,0.6c-0.1,0-0.1,0-0.2,0l-0.1,0l-8.7-2.8c-0.3-0.1-0.4-0.4-0.3-0.6c0.1-0.2,0.3-0.4,0.5-0.3l0.1,0l6.9,2.2
			L3.5,26C-1,20.2-1.2,15.5,3.2,12.2C8.7,8.1,15,9.1,21.8,15.3z"/>
	</g>
</g>
</svg>
